<svg width="191" height="49" viewBox="0 0 191 49" fill="none" xmlns="http://www.w3.org/2000/svg">
<path d="M25.1654 7.25877C26.7202 5.31888 27.7863 2.68055 27.4919 0C25.2405 0.101696 22.4214 1.55422 20.8031 3.4519C19.3657 5.12316 18.0822 7.86703 18.417 10.4401C20.9436 10.6301 23.5375 9.1718 25.1654 7.25877Z" fill="#075056"/>
<path d="M30.8614 24.0841C30.8075 18.3661 35.5585 15.5838 35.7759 15.4533C33.0877 11.5409 28.9159 11.0056 27.4535 10.9634C23.9494 10.595 20.555 13.0549 18.7731 13.0549C16.9508 13.0549 14.2029 11.0018 11.2453 11.0574C7.43527 11.1169 3.87152 13.3158 1.91453 16.7332C-2.11874 23.6965 0.892743 33.9294 4.75476 39.5591C6.68673 42.3145 8.94775 45.3979 11.9015 45.2847C14.7956 45.1677 15.8751 43.4465 19.3677 43.4465C22.8256 43.4465 23.8416 45.2847 26.8589 45.2176C29.9627 45.1677 31.9159 42.4488 33.7824 39.6665C36.0165 36.5082 36.9132 33.3959 36.9498 33.2367C36.8766 33.2117 30.921 30.9418 30.8614 24.0841Z" fill="#075056"/>
<path d="M66.1599 37.6168H57.6502L55.6064 43.6327H52L60.0613 21.375H63.8074L71.8653 43.6327H68.1985L66.1599 37.6168ZM58.5315 34.8393H65.2751L61.9533 25.0777H61.8585L58.5315 34.8393Z" fill="#075056"/>
<path d="M89.2726 35.5204C89.2726 40.5628 86.5683 43.8029 82.4807 43.8029C80.161 43.8029 78.319 42.7676 77.3566 40.9635H77.2841V49.0019H73.9434V27.4029H77.1772V30.103H77.2376C78.1672 28.3608 80.1454 27.2344 82.4186 27.2344C86.551 27.2361 89.2726 30.4917 89.2726 35.5204ZM85.8387 35.5204C85.8387 32.2321 84.1364 30.072 81.5356 30.072C78.9864 30.072 77.2686 32.2803 77.2686 35.5204C77.2686 38.7897 78.9864 40.979 81.5356 40.979C84.1364 40.979 85.8387 38.8344 85.8387 35.5204Z" fill="#075056"/>
<path d="M107.186 35.5204C107.186 40.5628 104.481 43.8029 100.394 43.8029C98.074 43.8029 96.232 42.7676 95.2697 40.9635H95.1972V49.0019H91.8564V27.4029H95.0903V30.103H95.1506C96.0803 28.3608 98.0585 27.2344 100.332 27.2344C104.466 27.2361 107.186 30.4917 107.186 35.5204ZM103.752 35.5204C103.752 32.2321 102.05 30.072 99.4486 30.072C96.8961 30.072 95.1817 32.2803 95.1817 35.5204C95.1817 38.7897 96.8978 40.979 99.4486 40.979C102.05 40.979 103.752 38.8344 103.752 35.5204Z" fill="#075056"/>
<path d="M119.024 37.4275C119.273 39.6358 121.42 41.0838 124.361 41.0838C127.177 41.0838 129.204 39.6375 129.204 37.6442C129.204 35.9175 127.979 34.8839 125.085 34.1754L122.196 33.4806C118.095 32.49 116.191 30.5827 116.191 27.4802C116.191 23.6365 119.549 21 124.312 21C129.031 21 132.265 23.6365 132.374 27.4802H129.004C128.8 25.2582 126.96 23.9168 124.268 23.9168C121.575 23.9168 119.737 25.2754 119.737 27.248C119.737 28.8217 120.911 29.7486 123.788 30.4589L126.247 31.0591C130.827 32.1374 132.731 33.9725 132.731 37.2315C132.731 41.3951 129.405 44.004 124.112 44.004C119.161 44.004 115.818 41.4587 115.603 37.4293H119.024V37.4275Z" fill="#075056"/>
<path d="M139.944 23.5625V27.4063H143.039V30.0427H139.944V38.9891C139.944 40.3821 140.564 41.0288 141.927 41.0288C142.265 41.0288 142.808 40.9772 143.026 40.9497V43.5741C142.657 43.667 141.911 43.7272 141.17 43.7272C137.874 43.7272 136.587 42.4923 136.587 39.3485V30.0444H134.223V27.408H136.587V23.5642H139.944V23.5625Z" fill="#075056"/>
<path d="M144.829 35.5201C144.829 30.414 147.846 27.2031 152.549 27.2031C157.266 27.2031 160.269 30.414 160.269 35.5201C160.269 40.6382 157.28 43.8336 152.549 43.8336C147.813 43.8353 144.829 40.6399 144.829 35.5201ZM156.864 35.5201C156.864 32.0168 155.253 29.9479 152.549 29.9479C149.841 29.9479 148.23 32.0289 148.23 35.5201C148.23 39.0336 149.841 41.0854 152.549 41.0854C155.255 41.0871 156.864 39.0336 156.864 35.5201Z" fill="#075056"/>
<path d="M163.023 27.4024H166.209V30.1627H166.285C166.797 28.3277 168.284 27.2305 170.201 27.2305C170.679 27.2305 171.083 27.2941 171.343 27.3543V30.474C171.083 30.3657 170.493 30.2711 169.844 30.2711C167.694 30.2711 166.362 31.7209 166.362 34.0065V43.6305H163.021V27.4024H163.023Z" fill="#075056"/>
<path d="M186.75 38.8651C186.298 41.8094 183.421 43.8353 179.743 43.8353C175.007 43.8353 172.069 40.6709 172.069 35.594C172.069 30.5069 175.022 27.2031 179.599 27.2031C184.103 27.2031 186.935 30.2867 186.935 35.2088V36.3473H175.439V36.5502C175.439 39.3277 177.187 41.1455 179.818 41.1455C181.674 41.1455 183.128 40.2702 183.577 38.8634H186.75V38.8651ZM175.455 34.0221H183.592C183.516 31.537 181.921 29.8998 179.598 29.8998C177.295 29.8998 175.627 31.5697 175.455 34.0221Z" fill="#075056"/>
<path d="M56.5924 1.76953C60.1389 1.76953 62.2228 3.94736 62.2228 7.7005C62.2228 11.5131 60.1562 13.7082 56.5924 13.7082H52.2705V1.76953H56.5924ZM54.1294 12.0159H56.3846C58.8881 12.0159 60.3332 10.4655 60.3332 7.72545C60.3332 5.02763 58.8631 3.45998 56.3846 3.45998H54.1294V12.0159Z" fill="#075056"/>
<path d="M64.3223 9.19767C64.3223 6.29455 65.9483 4.52734 68.5826 4.52734C71.2169 4.52734 72.8391 6.29455 72.8391 9.19767C72.8391 12.1142 71.2227 13.8776 68.5826 13.8776C65.9406 13.8795 64.3223 12.1161 64.3223 9.19767ZM71.0072 9.19767C71.0072 7.24243 70.1259 6.10267 68.5826 6.10267C67.0355 6.10267 66.1638 7.24243 66.1638 9.19767C66.1638 11.1663 67.0336 12.2984 68.5826 12.2984C70.1278 12.3004 71.0072 11.1587 71.0072 9.19767Z" fill="#075056"/>
<path d="M84.164 13.706H82.3148L80.4502 7.07084H80.3078L78.4509 13.706H76.6189L74.1309 4.69922H75.9378L77.5561 11.5685H77.6869L79.5438 4.69922H81.2564L83.1134 11.5685H83.2519L84.8645 4.69922H86.6463L84.164 13.706Z" fill="#075056"/>
<path d="M88.7373 4.69805H90.4518V6.12754H90.5865C91.0272 5.12594 91.922 4.52344 93.2805 4.52344C95.2971 4.52344 96.4055 5.73036 96.4055 7.8698V13.7048H94.6237V8.31688C94.6237 6.87203 93.9944 6.15441 92.6744 6.15441C91.3562 6.15441 90.5192 7.02937 90.5192 8.43776V13.7068H88.7373V4.69805Z" fill="#075056"/>
<path d="M101.028 1.18359H99.2461V13.7056H101.028V1.18359Z" fill="#075056"/>
<path d="M103.509 9.19767C103.509 6.29455 105.135 4.52734 107.769 4.52734C110.4 4.52734 112.029 6.29455 112.029 9.19767C112.029 12.1142 110.411 13.8776 107.769 13.8776C105.127 13.8795 103.509 12.1161 103.509 9.19767ZM110.194 9.19767C110.194 7.24243 109.312 6.10267 107.769 6.10267C106.222 6.10267 105.35 7.24243 105.35 9.19767C105.35 11.1663 106.22 12.2984 107.769 12.2984C109.312 12.3004 110.194 11.1587 110.194 9.19767Z" fill="#075056"/>
<path d="M113.905 11.1587C113.905 9.5373 115.116 8.60285 117.263 8.46853L119.709 8.33038V7.55135C119.709 6.60347 119.076 6.06045 117.86 6.06045C116.865 6.06045 116.174 6.42886 115.978 7.0659H114.252C114.433 5.51936 115.893 4.52734 117.94 4.52734C120.205 4.52734 121.485 5.64983 121.485 7.55135V13.7049H119.767V12.4366H119.628C119.087 13.3403 118.102 13.8527 116.911 13.8527C115.171 13.8546 113.905 12.805 113.905 11.1587ZM119.711 10.3873V9.63708L117.502 9.77523C116.259 9.85965 115.699 10.2818 115.699 11.0742C115.699 11.8859 116.401 12.3598 117.371 12.3598C118.716 12.3598 119.711 11.5021 119.711 10.3873Z" fill="#075056"/>
<path d="M123.823 9.19638C123.823 6.35082 125.293 4.551 127.576 4.551C128.807 4.551 129.856 5.13431 130.341 6.13016H130.475V1.17969H132.257V13.7017H130.549V12.278H130.406C129.869 13.2623 128.815 13.8456 127.572 13.8456C125.276 13.8494 123.823 12.0496 123.823 9.19638ZM125.667 9.19638C125.667 11.1075 126.569 12.2549 128.082 12.2549C129.583 12.2549 130.51 11.0902 130.51 9.20214C130.51 7.32556 129.573 6.14359 128.082 6.14359C126.579 6.14551 125.667 7.30254 125.667 9.19638Z" fill="#075056"/>
<path d="M139.633 9.19767C139.633 6.29455 141.259 4.52734 143.897 4.52734C146.527 4.52734 148.153 6.29455 148.153 9.19767C148.153 12.1142 146.535 13.8776 143.897 13.8776C141.251 13.8795 139.633 12.1161 139.633 9.19767ZM146.318 9.19767C146.318 7.24243 145.436 6.10267 143.897 6.10267C142.346 6.10267 141.476 7.24243 141.476 9.19767C141.476 11.1663 142.346 12.2984 143.897 12.2984C145.438 12.3004 146.318 11.1587 146.318 9.19767Z" fill="#075056"/>
<path d="M150.543 4.69805H152.257V6.12754H152.392C152.833 5.12594 153.728 4.52344 155.086 4.52344C157.103 4.52344 158.211 5.73036 158.211 7.8698V13.7048H156.429V8.31688C156.429 6.87203 155.798 6.15441 154.48 6.15441C153.162 6.15441 152.325 7.02937 152.325 8.43776V13.7068H150.543V4.69805Z" fill="#075056"/>
<path d="M168.285 2.45312V4.74032H170.242V6.23505H168.285V10.8651C168.285 11.8111 168.675 12.2217 169.562 12.2217C169.836 12.2217 169.992 12.2082 170.24 12.1795V13.6627C169.953 13.7126 169.618 13.7509 169.27 13.7509C167.288 13.7509 166.501 13.0563 166.501 11.3218V6.23314H165.067V4.7384H166.501V2.45312H168.285Z" fill="#075056"/>
<path d="M172.677 1.17969H174.445V6.13975H174.588C175.024 5.13047 175.979 4.52797 177.339 4.52797C179.26 4.52797 180.449 5.74256 180.449 7.88777V13.7017H178.667V8.32717C178.667 6.88616 177.992 6.15702 176.735 6.15702C175.273 6.15702 174.459 7.07804 174.459 8.44038V13.7017H172.677V1.17969Z" fill="#075056"/>
<path d="M190.842 11.2719C190.438 12.8856 188.992 13.8814 186.93 13.8814C184.341 13.8814 182.758 12.1104 182.758 9.22837C182.758 6.35403 184.374 4.52734 186.922 4.52734C189.431 4.52734 190.948 6.23698 190.948 9.0672V9.68696H184.57V9.78674C184.63 11.3697 185.55 12.3675 186.978 12.3675C188.053 12.3675 188.792 11.9818 189.125 11.2738H190.842V11.2719ZM184.57 8.37259H189.133C189.091 6.96037 188.23 6.03935 186.91 6.03935C185.592 6.03935 184.671 6.96612 184.57 8.37259Z" fill="#075056"/>
</svg>
