<svg width="25" height="24" viewBox="0 0 25 24" fill="none" xmlns="http://www.w3.org/2000/svg">
<g clip-path="url(#clip0_377_357)">
<path d="M22.995 6.07905C22.5973 6.0794 22.216 6.23767 21.935 6.51905L14.263 14.1911C14.0308 14.4233 13.7552 14.6075 13.4518 14.7332C13.1485 14.8588 12.8233 14.9235 12.495 14.9235C12.1666 14.9235 11.8415 14.8588 11.5381 14.7332C11.2348 14.6075 10.9591 14.4233 10.727 14.1911L3.06499 6.52905C2.78208 6.25582 2.40318 6.10462 2.00989 6.10804C1.61659 6.11146 1.24037 6.26921 0.962259 6.54733C0.684147 6.82544 0.526394 7.20166 0.522976 7.59495C0.519558 7.98825 0.67075 8.36715 0.943987 8.65005L8.59999 16.3121C9.63225 17.3423 11.0311 17.9209 12.4895 17.9209C13.9479 17.9209 15.3467 17.3423 16.379 16.3121L24.056 8.64005C24.2659 8.43027 24.4089 8.16294 24.4668 7.87188C24.5247 7.58081 24.495 7.27911 24.3814 7.00494C24.2679 6.73076 24.0755 6.49644 23.8287 6.33163C23.5819 6.16682 23.2918 6.07892 22.995 6.07905Z" fill="#F58A2B"/>
</g>
<defs>
<clipPath id="clip0_377_357">
<rect width="24" height="24" fill="white" transform="matrix(0 -1 -1 0 24.5 24)"/>
</clipPath>
</defs>
</svg>
