<svg width="32" height="32" viewBox="0 0 32 32" fill="none" xmlns="http://www.w3.org/2000/svg">
<g clip-path="url(#clip0_377_342)">
<path d="M8 6.40005C8 5.51642 8.71638 4.80005 9.6 4.80005H30.4C31.2836 4.80005 32 5.51642 32 6.40005C32 7.28367 31.2836 8.00005 30.4 8.00005H9.6C8.71638 8.00005 8 7.28361 8 6.40005ZM30.4 14.4H1.6C0.716375 14.4 0 15.1165 0 16C0 16.8837 0.716375 17.6 1.6 17.6H30.4C31.2836 17.6 32 16.8837 32 16C32 15.1165 31.2836 14.4 30.4 14.4ZM30.4 24H16C15.1164 24 14.4 24.7164 14.4 25.6C14.4 26.4836 15.1164 27.2001 16 27.2001H30.4C31.2836 27.2001 32 26.4836 32 25.6C32 24.7164 31.2836 24 30.4 24Z" fill="#F58A2B"/>
</g>
<defs>
<clipPath id="clip0_377_342">
<rect width="32" height="32" fill="white"/>
</clipPath>
</defs>
</svg>
