<?xml version="1.0" encoding="UTF-8"?>
<!DOCTYPE svg PUBLIC "-//W3C//DTD SVG 1.1//EN" "http://www.w3.org/Graphics/SVG/1.1/DTD/svg11.dtd">
<svg xmlns="http://www.w3.org/2000/svg" version="1.1" width="256px" height="256px" style="shape-rendering:geometricPrecision; text-rendering:geometricPrecision; image-rendering:optimizeQuality; fill-rule:evenodd; clip-rule:evenodd" xmlns:xlink="http://www.w3.org/1999/xlink">
<g><path style="opacity:0.997" fill="#ee5d21" d="M 149.5,224.5 C 149.5,195.167 149.5,165.833 149.5,136.5C 162.772,135.056 168.272,127.722 166,114.5C 159.716,103.915 151.216,101.748 140.5,108C 136.156,111.876 134.489,116.709 135.5,122.5C 129.833,122.5 124.167,122.5 118.5,122.5C 118.039,109.734 118.539,97.0668 120,84.5C 126.814,76.9251 134.148,76.5918 142,83.5C 145.5,80 149,76.5 152.5,73C 144.063,63.8971 133.73,60.8971 121.5,64C 111.507,67.9933 105.007,75.16 102,85.5C 101.5,97.8288 101.333,110.162 101.5,122.5C 97.5,122.5 93.5,122.5 89.5,122.5C 88.5139,126.97 88.1805,131.637 88.5,136.5C 92.8333,136.5 97.1667,136.5 101.5,136.5C 101.5,149.833 101.5,163.167 101.5,176.5C 107.167,176.5 112.833,176.5 118.5,176.5C 118.5,163.167 118.5,149.833 118.5,136.5C 124.167,136.5 129.833,136.5 135.5,136.5C 135.5,166.5 135.5,196.5 135.5,226.5C 87.7825,227.25 54.2825,205.916 35,162.5C 21.845,120.286 31.0117,83.7862 62.5,53C 95.4665,26.878 131.467,21.878 170.5,38C 213.212,61.5904 231.379,97.7571 225,146.5C 215.265,187.402 190.099,213.402 149.5,224.5 Z"/></g>
<g><path style="opacity:0.998" fill="#fffaf9" d="M 149.5,224.5 C 144.833,225.167 140.167,225.833 135.5,226.5C 135.5,196.5 135.5,166.5 135.5,136.5C 129.833,136.5 124.167,136.5 118.5,136.5C 118.5,149.833 118.5,163.167 118.5,176.5C 112.833,176.5 107.167,176.5 101.5,176.5C 101.5,163.167 101.5,149.833 101.5,136.5C 97.7016,135.517 93.7016,135.183 89.5,135.5C 89.5,131.167 89.5,126.833 89.5,122.5C 93.5,122.5 97.5,122.5 101.5,122.5C 101.333,110.162 101.5,97.8288 102,85.5C 105.007,75.16 111.507,67.9933 121.5,64C 133.73,60.8971 144.063,63.8971 152.5,73C 149,76.5 145.5,80 142,83.5C 134.148,76.5918 126.814,76.9251 120,84.5C 118.539,97.0668 118.039,109.734 118.5,122.5C 124.167,122.5 129.833,122.5 135.5,122.5C 134.489,116.709 136.156,111.876 140.5,108C 151.216,101.748 159.716,103.915 166,114.5C 168.272,127.722 162.772,135.056 149.5,136.5C 149.5,165.833 149.5,195.167 149.5,224.5 Z"/></g>
<g><path style="opacity:1" fill="#ee6126" d="M 149.5,118.5 C 150.5,118.5 151.5,118.5 152.5,118.5C 152.5,119.833 152.5,121.167 152.5,122.5C 151.5,122.5 150.5,122.5 149.5,122.5C 149.5,121.167 149.5,119.833 149.5,118.5 Z"/></g>
<g><path style="opacity:1" fill="#f9bea7" d="M 89.5,122.5 C 89.5,126.833 89.5,131.167 89.5,135.5C 93.7016,135.183 97.7016,135.517 101.5,136.5C 97.1667,136.5 92.8333,136.5 88.5,136.5C 88.1805,131.637 88.5139,126.97 89.5,122.5 Z"/></g>
</svg>
