<svg width="202" height="49" viewBox="0 0 202 49" fill="none" xmlns="http://www.w3.org/2000/svg">
<path d="M60.3698 6.07759C60.3698 7.58677 59.9239 8.78827 59.0281 9.68015C58.0116 10.7473 56.6894 11.2789 55.0634 11.2789C53.5055 11.2789 52.1813 10.7375 51.0889 9.65678C50.0003 8.57796 49.4551 7.23625 49.4551 5.6375C49.4551 4.03874 50.0003 2.70093 51.0889 1.62211C52.1813 0.543295 53.5055 0 55.0634 0C55.8365 0 56.5764 0.153828 57.2775 0.451769C57.9805 0.753604 58.5452 1.15476 58.9678 1.65523L58.0194 2.60746C57.3028 1.75453 56.3213 1.32613 55.0634 1.32613C53.9261 1.32613 52.9427 1.72337 52.1132 2.52373C51.2856 3.32408 50.8708 4.36201 50.8708 5.63556C50.8708 6.91495 51.2856 7.95093 52.1132 8.75128C52.9408 9.55163 53.9261 9.94888 55.0634 9.94888C56.2668 9.94888 57.2736 9.54773 58.0759 8.74543C58.5978 8.22355 58.9016 7.49136 58.9794 6.55664H55.0614V5.25972H60.2919C60.3445 5.54597 60.3698 5.81665 60.3698 6.07759Z" fill="#075056"/>
<path d="M68.6609 1.56637H63.7478V4.98975H68.178V6.28668H63.7478V9.71008H68.6609V11.0343H62.3594V0.242188H68.6609V1.56637Z" fill="#075056"/>
<path d="M74.5113 11.0362H73.1229V1.56637H70.1084V0.242188H77.5277V1.56637H74.5113V11.0362Z" fill="#075056"/>
<path d="M84.2771 0.242188H82.8926V11.0362H84.2771V0.242188Z" fill="#075056"/>
<path d="M90.4322 11.0362H89.0438V1.56637H86.0312V0.242188H93.4447V1.56637H90.4322V11.0362Z" fill="#075056"/>
<path d="M107.491 9.6412C106.428 10.7336 105.11 11.2789 103.532 11.2789C101.953 11.2789 100.635 10.7336 99.5734 9.6412C98.5121 8.54875 97.9844 7.21483 97.9844 5.6375C97.9844 4.06016 98.514 2.72625 99.5734 1.6377C100.635 0.54914 101.953 0 103.532 0C105.1 0 106.418 0.547199 107.481 1.64354C108.549 2.73989 109.08 4.0699 109.08 5.6375C109.08 7.21483 108.549 8.54875 107.491 9.6412ZM100.6 8.73765C101.398 9.54579 102.378 9.95083 103.532 9.95083C104.689 9.95083 105.667 9.54579 106.463 8.73765C107.263 7.92951 107.665 6.89742 107.665 5.63945C107.665 4.38537 107.263 3.35329 106.463 2.54321C105.667 1.73507 104.689 1.33001 103.532 1.33001C102.376 1.33001 101.398 1.73507 100.6 2.54321C99.8032 3.35135 99.402 4.38342 99.402 5.63945C99.4001 6.89547 99.8032 7.92756 100.6 8.73765Z" fill="#075056"/>
<path d="M111.025 11.0362V0.242188H112.714L117.96 8.641H118.02L117.96 6.56126V0.242188H119.348V11.0362H117.901L112.412 2.23235H112.353L112.412 4.31599V11.0362H111.025Z" fill="#075056"/>
<path d="M97.6419 26.7853C93.4084 26.7853 89.9597 30.0023 89.9597 34.4364C89.9597 38.8412 93.4084 42.0894 97.6419 42.0894C101.875 42.0894 105.324 38.8412 105.324 34.4364C105.324 30.0023 101.875 26.7853 97.6419 26.7853ZM97.6419 39.073C95.3227 39.073 93.3228 37.1626 93.3228 34.4364C93.3228 31.6848 95.3227 29.7998 97.6419 29.7998C99.9612 29.7998 101.961 31.6848 101.961 34.4364C101.961 37.1607 99.9612 39.073 97.6419 39.073ZM80.8871 26.7853C76.6537 26.7853 73.2049 30.0023 73.2049 34.4364C73.2049 38.8412 76.6537 42.0894 80.8871 42.0894C85.1206 42.0894 88.5654 38.8412 88.5654 34.4364C88.5654 30.0023 85.1187 26.7853 80.8871 26.7853ZM80.8871 39.073C78.5679 39.073 76.568 37.1626 76.568 34.4364C76.568 31.6848 78.5679 29.7998 80.8871 29.7998C83.2064 29.7998 85.2063 31.6848 85.2063 34.4364C85.2063 37.1607 83.2045 39.073 80.8871 39.073ZM60.9543 29.1319V32.3781H68.7222C68.4905 34.2027 67.881 35.5366 66.954 36.4635C65.8226 37.5969 64.0564 38.8393 60.9543 38.8393C56.1697 38.8393 52.4309 34.9855 52.4309 30.2009C52.4309 25.4203 56.1697 21.5626 60.9543 21.5626C63.5345 21.5626 65.4156 22.5791 66.808 23.8838L69.098 21.5938C67.1546 19.736 64.5783 18.3203 60.9543 18.3203C54.4035 18.3203 48.8965 23.6521 48.8965 30.2009C48.8965 36.7517 54.4035 42.0874 60.9543 42.0874C64.4887 42.0874 67.1546 40.9249 69.2421 38.7536C71.3881 36.6096 72.0541 33.5971 72.0541 31.161C72.0541 30.4093 71.9976 29.7122 71.8827 29.1319H60.9543ZM142.467 31.6517C141.831 29.942 139.891 26.7853 135.919 26.7853C131.975 26.7853 128.698 29.8874 128.698 34.4364C128.698 38.7263 131.946 42.0894 136.294 42.0894C139.802 42.0894 141.831 39.9434 142.67 38.6971L140.062 36.9582C139.192 38.2356 138.004 39.073 136.294 39.073C134.585 39.073 133.368 38.2901 132.585 36.7537L142.818 32.5241L142.467 31.6517ZM132.034 34.2027C131.948 31.2467 134.324 29.7414 136.033 29.7414C137.367 29.7414 138.499 30.4093 138.875 31.3655L132.034 34.2027ZM123.719 41.624H127.082V19.1324H123.719V41.624ZM118.208 28.4912H118.093C117.337 27.5954 115.888 26.7834 114.064 26.7834C110.239 26.7834 106.728 30.1464 106.728 34.4617C106.728 38.7516 110.237 42.0874 114.064 42.0874C115.888 42.0874 117.337 41.2754 118.093 40.3485H118.208V41.4506C118.208 44.3736 116.644 45.9412 114.122 45.9412C112.064 45.9412 110.788 44.4632 110.268 43.2149L107.338 44.4339C108.181 46.4631 110.411 48.9556 114.122 48.9556C118.065 48.9556 121.397 46.6344 121.397 40.9833V27.2469H118.21V28.4912H118.208ZM114.354 39.073C112.035 39.073 110.093 37.1295 110.093 34.4636C110.093 31.7685 112.037 29.7978 114.354 29.7978C116.644 29.7978 118.439 31.7685 118.439 34.4636C118.441 37.1295 116.644 39.073 114.354 39.073ZM158.217 19.1343H150.175V41.624H153.528V33.1005H158.217C161.937 33.1005 165.598 30.4093 165.598 26.1155C165.598 21.8255 161.937 19.1343 158.217 19.1343ZM158.303 29.9731H153.528V22.2617H158.303C160.813 22.2617 162.241 24.3376 162.241 26.1155C162.241 27.8603 160.813 29.9731 158.303 29.9731ZM179.054 26.7406C176.62 26.7406 174.104 27.8135 173.062 30.1834L176.043 31.4297C176.676 30.1834 177.866 29.7803 179.11 29.7803C180.845 29.7803 182.61 30.8241 182.639 32.676V32.9077C182.031 32.5611 180.728 32.0373 179.136 32.0373C175.924 32.0373 172.657 33.8015 172.657 37.1023C172.657 40.1128 175.288 42.0524 178.24 42.0524C180.499 42.0524 181.739 41.0398 182.52 39.8538H182.639V41.587H185.881V32.9661C185.881 28.9722 182.902 26.7406 179.054 26.7406ZM178.645 39.0652C177.547 39.0652 176.01 38.5199 176.01 37.1568C176.01 35.4217 177.92 34.7557 179.572 34.7557C181.046 34.7557 181.741 35.077 182.639 35.5074C182.378 37.5949 180.584 39.0652 178.645 39.0652ZM197.686 27.2371L193.838 36.9854H193.721L189.731 27.2371H186.113L192.103 40.8625L188.685 48.4454H192.188L201.419 27.2371H197.686ZM167.448 41.624H170.805V19.1324H167.448V41.624Z" fill="#075056"/>
<path d="M34.8372 25.4447L27.004 29.9677L20.375 23.4181L26.9314 16.8516L34.8372 21.4167C36.3876 22.3118 36.3876 24.5479 34.8372 25.4447Z" fill="#064045"/>
<path d="M27.0053 29.9676L3.4889 43.543C2.50595 44.1105 1.36594 43.869 0.665039 43.158L20.3763 23.418L27.0053 29.9676Z" fill="#09646B"/>
<path d="M20.375 23.4161L0.665432 43.1561C0.260093 42.7474 0 42.1816 0 41.528V5.32788C0 4.73845 0.211114 4.22333 0.547207 3.82812L20.375 23.4161Z" fill="#075056"/>
<path d="M26.9311 16.8506L20.3747 23.4171L0.546875 3.8274C1.23257 3.02179 2.4469 2.71442 3.48727 3.31398L26.9311 16.8506Z" fill="#064045"/>
</svg>
