<svg width="33" height="32" viewBox="0 0 33 32" fill="none" xmlns="http://www.w3.org/2000/svg">
<g clip-path="url(#clip0_377_353)">
<path d="M16.5 0C13.3355 0 10.2421 0.938384 7.61088 2.69649C4.9797 4.45459 2.92894 6.95345 1.71793 9.87707C0.506933 12.8007 0.190079 16.0177 0.807443 19.1214C1.42481 22.2251 2.94866 25.0761 5.1863 27.3137C7.42394 29.5513 10.2749 31.0752 13.3786 31.6926C16.4823 32.3099 19.6993 31.9931 22.6229 30.7821C25.5466 29.5711 28.0454 27.5203 29.8035 24.8891C31.5616 22.2579 32.5 19.1645 32.5 16C32.4954 11.7579 30.8082 7.69095 27.8087 4.69136C24.8091 1.69177 20.7421 0.00458811 16.5 0V0ZM29.8333 16C29.8349 18.6129 29.0639 21.168 27.6173 23.344L26.028 21.7533C25.9034 21.6284 25.8334 21.4591 25.8333 21.2827V20C25.8333 18.9391 25.4119 17.9217 24.6618 17.1716C23.9116 16.4214 22.8942 16 21.8333 16H17.8333C17.4797 16 17.1406 15.8595 16.8905 15.6095C16.6405 15.3594 16.5 15.0203 16.5 14.6667V14C16.5 13.8232 16.5702 13.6536 16.6953 13.5286C16.8203 13.4036 16.9899 13.3333 17.1667 13.3333C18.0507 13.3333 18.8986 12.9821 19.5237 12.357C20.1488 11.7319 20.5 10.8841 20.5 10V8.66667C20.5 8.48986 20.5702 8.32029 20.6953 8.19526C20.8203 8.07024 20.9899 8 21.1667 8H23.0053C23.8885 7.99749 24.7351 7.64679 25.3613 7.024L25.864 6.52133C27.1216 7.75877 28.1202 9.23419 28.8017 10.8616C29.4832 12.4889 29.8339 14.2357 29.8333 16ZM3.23201 17.284L7.44267 21.4947C7.81321 21.8676 8.25411 22.1632 8.7398 22.3644C9.22549 22.5656 9.7463 22.6683 10.272 22.6667H13.8333C14.187 22.6667 14.5261 22.8071 14.7761 23.0572C15.0262 23.3072 15.1667 23.6464 15.1667 24V29.2653C12.1003 28.9523 9.23653 27.5882 7.06124 25.4044C4.88596 23.2206 3.53305 20.3516 3.23201 17.284ZM17.8333 29.2653V24C17.8333 22.9391 17.4119 21.9217 16.6618 21.1716C15.9116 20.4214 14.8942 20 13.8333 20H10.272C10.0967 20.0001 9.92309 19.9657 9.76111 19.8987C9.59912 19.8316 9.45195 19.7333 9.32801 19.6093L3.38401 13.6653C3.76558 11.4963 4.67966 9.45586 6.04424 7.72717C7.40882 5.99849 9.18122 4.63561 11.2024 3.76082C13.2236 2.88603 15.4303 2.52669 17.6246 2.71504C19.8189 2.9034 21.9321 3.63355 23.7747 4.84L23.476 5.13867C23.3505 5.26244 23.1816 5.33229 23.0053 5.33333H21.1667C20.2826 5.33333 19.4348 5.68452 18.8097 6.30964C18.1845 6.93477 17.8333 7.78261 17.8333 8.66667V10C17.8333 10.1768 17.7631 10.3464 17.6381 10.4714C17.5131 10.5964 17.3435 10.6667 17.1667 10.6667C16.2826 10.6667 15.4348 11.0179 14.8097 11.643C14.1845 12.2681 13.8333 13.1159 13.8333 14V14.6667C13.8333 15.7275 14.2548 16.7449 15.0049 17.4951C15.7551 18.2452 16.7725 18.6667 17.8333 18.6667H21.8333C22.187 18.6667 22.5261 18.8071 22.7762 19.0572C23.0262 19.3072 23.1667 19.6464 23.1667 20V21.2827C23.1692 22.1659 23.5199 23.0124 24.1427 23.6387L25.9253 25.4213C23.754 27.6002 20.8942 28.9588 17.8333 29.2653Z" fill="#075056"/>
<circle cx="16.5" cy="16" r="14.6" stroke="#FF3600" stroke-width="2.8"/>
</g>
<defs>
<clipPath id="clip0_377_353">
<rect width="32" height="32" fill="white" transform="translate(0.5)"/>
</clipPath>
</defs>
</svg>
